<svg width="594" height="1260" viewBox="0 0 594 1260" fill="none" xmlns="http://www.w3.org/2000/svg">
<path opacity="0.5" d="M350.477 1168.29L354.004 1161.42L338.361 1226.55L336.859 1229.54L350.477 1168.29ZM340.408 1180.57L347.662 1171.84L333.279 1236.53L328.929 1241.91L340.408 1180.57ZM328.253 1189.75L338.101 1182.45L326.42 1244.86L320.186 1249.63L328.253 1189.75ZM314.67 1195.32L326.252 1190.72L318.125 1251.04L310.653 1254.1L314.67 1195.32ZM300.42 1197L312.844 1195.71L308.815 1254.66L300.747 1255.52L300.42 1197ZM286.316 1194.75L298.643 1196.94L298.97 1255.44L290.971 1253.98L286.316 1194.75ZM281.828 1249.66L273.164 1188.82L284.466 1194.23L289.104 1253.25L281.828 1249.66ZM273.795 1242.87L261.72 1179.78L271.118 1187.67L279.708 1247.99L273.795 1242.87ZM267.274 1234.05L252.712 1168.75L259.344 1177.63L271.168 1239.4L267.274 1234.05ZM232.995 1089.41L247.224 1153.23L244.333 1146.91L228.268 1079.3L232.995 1089.41ZM215.546 1011.16L230.521 1078.31L225.465 1067.5L208.655 996.756L215.546 1011.16ZM197.388 929.724L213.148 1000.41L205.944 985.343L188.355 911.319L197.388 929.724ZM178.471 844.89L195.065 919.305L185.735 900.298L167.329 822.831L178.471 844.89ZM158.75 756.446L176.227 834.83L164.807 812.219L145.539 731.127L158.75 756.446ZM138.172 664.156L156.589 746.755L143.117 720.935L122.941 636.025L138.172 664.156ZM110.739 563.369L136.096 654.846L120.623 626.268L81.4119 533.057L110.739 563.369ZM79.1988 459.667L108.752 554.454L79.1988 523.744L49.1041 433.459L79.1988 459.667ZM56.6041 356.5L77.3022 451.161L46.9999 424.603L21.9999 329.072L56.6041 356.5ZM38.7157 251.751L54.8017 348.417L20.0073 320.689L3.54224 214.329L38.7157 251.751ZM61.5834 168.931L69.6379 196.69L1.49384 205.691L3.70157 170.627L61.5834 168.931ZM14.9217 133.457L64.2525 137.827L61.3355 164.571L3.54231 166.257L14.9217 133.457ZM37.5204 102.788L77.6534 108.703L65.1011 133.457L17.0454 129.107L37.5204 102.788ZM67.4878 72.8038L100.731 82.577L79.8564 104.636L41.2456 98.9485L67.4878 72.8038ZM106.077 47.8539L132.054 60.2974L104.064 79.1407L72.1303 69.7521L106.077 47.8539ZM151.144 28.377L169.977 42.5197L135.967 57.709L110.943 45.7228L151.144 28.377ZM200.776 14.5935L212.812 29.7009L173.834 40.8329L155.576 27.1222L200.776 14.5935ZM253.206 6.60168L258.808 22.141L216.025 28.8151L204.25 14.0355L253.206 6.60168ZM306.015 19.991L261.076 21.8352L255.535 6.46289L306.609 4.42322L306.015 19.991ZM352.514 23.1687L307.796 20.0255L308.391 4.44202L359.257 7.91943L352.514 23.1687ZM397.181 31.4885L354.961 23.5848L361.791 8.13391L410.22 16.9517L397.181 31.4885ZM438.751 44.799L400.553 32.5383L413.905 17.6516L458.363 31.4948L438.751 44.799ZM475.705 62.9045L442.668 46.6874L462.925 32.9451L502.169 51.5298L475.705 62.9045ZM506.374 85.4585L479.563 65.6978L507.055 53.8817L539.787 76.9464L506.374 85.4585ZM528.984 111.912L509.531 89.0619L544.317 80.2L569.01 107.404L528.984 111.912ZM541.774 141.443L530.927 116.08L572.488 111.401L587.326 142.206L541.774 141.443ZM543.285 172.947L542.383 145.838L589.064 146.62L591.999 180.129L543.285 172.947ZM580.414 219.152L532.457 205.054L542.83 177.269L591.377 184.426L580.414 219.152ZM529.327 363.902L552.282 260.663L581 223.5L569.01 320.841L529.327 363.902ZM505.989 468.863L527.711 371.166L567.201 328.372L549.776 422.648L505.989 468.863ZM483.728 568.984L504.301 476.454L547.879 430.549L518 530.506L483.728 568.984ZM366.978 1094.08L372.879 1082.84L356.523 1150.93L352.666 1158.44L366.978 1094.08ZM353.649 1109.82L364.192 1097.49L349.142 1165.18L341.586 1174.28L353.649 1109.82ZM337.432 1121.63L351.356 1111.63L339.096 1177.13L328.939 1184.67L337.432 1121.63ZM319.215 1128.8L335.435 1122.57L326.884 1186.03L314.981 1190.76L319.215 1128.8ZM300.395 1192.62L300.05 1130.91L317.389 1129.17L313.145 1191.29L300.395 1192.62ZM285.966 1190.29L281.063 1127.9L298.274 1130.86L298.619 1192.54L285.966 1190.29ZM272.481 1184.03L263.37 1120.06L279.214 1127.39L284.102 1189.59L272.481 1184.03ZM260.665 1174.27L248.005 1108.12L261.329 1118.96L270.369 1182.41L260.665 1174.27ZM231.327 1031.24L244.379 1099.44L234.344 1086.38L218.42 1014.96L231.327 1031.24ZM216.355 953.016L230.084 1024.75L216.892 1008.11L200.225 933.353L216.355 953.016ZM200.68 871.126L215.134 946.638L198.728 926.638L181.269 848.349L200.68 871.126ZM184.257 785.302L199.483 864.865L179.803 841.775L161.509 759.728L184.257 785.302ZM167.022 695.257L183.082 779.164L160.075 753.3L140.889 667.252L167.022 695.257ZM148.917 600.674L165.871 689.245L139.489 660.972L113.414 566.27L148.917 600.674ZM129.877 501.193L147.792 594.792L112.048 560.144L81.8271 462.362L129.877 501.193ZM109.826 396.431L128.776 495.446L80.4965 456.394L59.1849 358.981L109.826 396.431ZM88.6812 285.944L108.752 390.819L57.8898 353.171L41.2456 254.005L88.6812 285.944ZM71.0662 200.735L91.226 228.118L39.5529 247.876L3.75181 209.524L71.0662 200.735ZM77.3022 204.203L71.8549 196.803L62.9914 166.257L65.6314 142.051L77.3022 204.203ZM97.5513 214.329L92.8309 225.297L79.9299 207.771L66.5079 136.292L79.6525 110.37L97.5513 214.329ZM119.128 187.421L99.0609 211.885L81.176 108.009L103.622 84.2887L119.128 187.421ZM148.032 164.798L120.779 185.801L105.3 82.8513L135.365 62.6144L148.032 164.798ZM182.637 146.948L149.752 163.691L137.105 61.6593L173.078 45.5902L182.637 146.948ZM221.383 134.182L184.391 146.207L174.841 44.9565L215.092 33.462L221.383 134.182ZM262.796 126.695L223.152 133.735L216.864 33.0774L259.86 26.3687L262.796 126.695ZM305.469 124.589L264.572 126.493L261.637 26.1984L305.925 24.3794L305.469 124.589ZM348.029 127.88L307.246 124.62L307.702 24.4047L351.875 27.5131L348.029 127.88ZM389.096 136.503L349.803 128.142L353.651 27.7338L396.295 35.7162L389.096 136.503ZM427.251 150.324L390.862 137.02L398.067 36.1575L437.708 48.8848L427.251 150.324ZM461.007 169.07L428.999 151.144L439.468 49.5847L474.54 66.8011L461.007 169.07ZM488.788 192.307L462.715 170.277L476.271 67.8447L505.112 89.1028L488.788 192.307ZM508.99 219.304L490.416 194.067L506.77 90.6761L527.64 115.191L508.99 219.304ZM528.119 207.27L512.038 226.378L510.454 221.974L529.105 117.852L540.34 144.123L528.119 207.27ZM551.498 256.732L508.088 235.937L530.779 208.976L577.847 222.816L551.498 256.732ZM486.641 399.177L506.3 294.131L549.821 262.624L526.447 367.742L486.641 399.177ZM467.092 503.633L485.631 404.578L525.207 373.326L503.026 473.081L467.092 503.633ZM448.557 602.68L466.06 509.147L501.755 478.797L480.683 573.565L448.557 602.68ZM462.471 664.588L481.97 576.894L516.015 538.766L485.794 631.252L462.471 664.588ZM442.152 755.97L460.645 672.8L483.728 639.859L457.705 729.68L442.152 755.97ZM422.71 843.415L440.259 764.485L455.557 738.624L435.957 820.224L422.71 843.415ZM404.09 927.164L420.755 852.211L433.73 829.496L415.005 907.451L404.09 927.164ZM386.238 1007.45L402.072 936.238L412.703 917.038L394.809 991.535L386.238 1007.45ZM367.496 1035.82L381.405 1020.07L365.648 1090.94L354.81 1103.61L367.496 1035.82ZM347.062 1050.15L365.215 1037.56L352.343 1106.35L338.113 1116.58L347.062 1050.15ZM323.993 1058.86L345.07 1051.05L336.064 1117.89L319.527 1124.24L323.993 1058.86ZM300.026 1126.53L299.661 1061.39L322.168 1059.22L317.692 1124.76L300.026 1126.53ZM280.713 1123.44L275.544 1057.64L297.884 1061.33L298.248 1126.46L280.713 1123.44ZM262.69 1115.29L253.102 1047.97L273.696 1057.15L278.85 1122.76L262.69 1115.29ZM240.293 971.263L250.329 1041.72L232.637 1027.83L218.687 954.936L240.293 971.263ZM228.97 891.773L239.562 966.128L217.66 949.577L202.996 872.961L228.97 891.773ZM217.055 808.115L228.245 886.678L201.981 867.655L186.553 787.043L217.055 808.115ZM204.5 719.967L216.336 803.067L185.549 781.8L169.3 696.906L204.5 719.967ZM191.251 626.949L203.788 714.964L168.308 691.716L151.176 602.216L191.251 626.949ZM177.25 528.649L190.546 621.996L150.197 597.096L132.116 502.631L177.25 528.649ZM162.43 424.603L176.552 523.744L131.148 497.571L112.043 397.752L162.43 424.603ZM146.718 314.293L161.738 419.751L111.087 392.758L90.8758 287.148L146.718 314.293ZM93.8102 231.46L126.566 256.618L89.3447 281.871L43.0221 250.836L93.8102 231.46ZM98.2921 218.632L100.609 232.088L94.5141 227.406L98.2921 218.632ZM119.75 191.551L129.142 254.005L102.833 233.796L99.7564 215.927L119.75 191.551ZM148.552 168.988L160.951 269.011L131.217 255.212L121.397 189.915L148.552 168.988ZM183.039 151.219L192.535 251.902L162.797 268.923L150.273 167.903L183.039 151.219ZM221.654 138.517L227.919 238.818L194.281 251.079L184.795 150.497L221.654 138.517ZM262.924 131.068L265.851 231.126L229.684 238.314L223.424 138.079L262.924 131.068ZM304.993 228.954L267.627 230.899L264.699 130.872L305.449 128.978L304.993 228.954ZM344.022 232.318L306.769 228.989L307.225 129.003L347.86 132.25L344.022 232.318ZM381.621 241.155L345.795 232.611L349.635 132.508L388.787 140.838L381.621 241.155ZM416.435 255.285L383.384 241.732L390.553 141.342L426.811 154.596L416.435 255.285ZM447.816 268.727L441.898 271.145L418.174 256.196L428.561 155.393L460.452 173.256L447.816 268.727ZM479.288 252.368L466.655 261.025L449.792 267.92L462.164 174.445L488.142 196.393L479.288 252.368ZM506.556 232.891L504.977 234.767L481.425 250.906L489.765 198.184L508.27 223.326L506.556 232.891ZM510.374 228.355L509.022 229.96L509.664 226.381L510.374 228.355ZM505.668 290.02L470.032 263.261L505.327 239.077L547.879 259.462L505.668 290.02ZM431.184 425.785L445.396 320.289L504.148 295.181L484.374 400.842L431.184 425.785ZM417.193 529.624L430.542 430.549L483.46 405.731L464.796 505.456L417.193 529.624ZM403.99 627.617L416.546 534.428L463.87 510.402L446.233 604.65L403.99 627.617ZM430.959 696.713L447.505 608.301L479.383 579.413L459.35 669.515L430.959 696.713ZM414.228 786.119L429.888 702.445L458.021 675.493L438.957 761.235L414.228 786.119ZM398.302 871.218L413.136 791.951L437.601 767.332L419.443 848.998L398.302 871.218ZM383.123 952.319L397.192 877.148L418.062 855.215L400.754 933.054L383.123 952.319ZM357.179 975.056L379.727 960.015L366.195 1032.33L347.739 1045.13L357.179 975.056ZM329.026 985.227L355.191 975.923L345.698 1046.38L324.305 1054.31L329.026 985.227ZM299.637 1057L299.252 988.158L327.201 985.573L322.471 1054.8L299.637 1057ZM275.194 1053.18L269.734 983.704L297.476 988.108L297.86 1056.93L275.194 1053.18ZM261.767 905.351L267.526 978.631L241.647 967.553L230.993 892.753L261.767 905.351ZM255.311 823.172L261.407 900.761L230.32 888.037L219.07 809.048L255.311 823.172ZM248.487 736.329L254.951 818.597L218.402 804.35L206.509 720.853L248.487 736.329ZM241.264 644.408L248.129 731.761L205.843 716.174L193.253 627.781L241.264 644.408ZM233.608 546.963L240.906 639.859L192.59 623.124L179.242 529.422L233.608 546.963ZM225.476 443.478L233.251 542.43L178.583 524.791L164.415 425.319L225.476 443.478ZM216.823 333.363L225.12 438.957L163.757 420.706L148.692 314.939L216.823 333.363ZM192.938 256.174L195.311 281.335L177.555 276.719L166.228 271.461L192.938 256.174ZM228.19 243.15L231.157 290.648L197.181 281.82L194.686 255.363L228.19 243.15ZM265.98 235.499L267.712 294.667L234.305 291.467L232.983 291.124L229.956 242.661L265.98 235.499ZM304.683 296.931L296.238 297.401L269.498 294.841L267.754 235.278L304.974 233.342L304.683 296.931ZM341.624 294.869L306.459 296.83L306.749 233.374L343.855 236.687L341.624 294.869ZM378.151 289.721L358.695 293.914L343.412 294.768L345.628 236.974L381.312 245.483L378.151 289.721ZM413.673 282.066L379.983 289.327L383.074 246.047L415.995 259.547L413.673 282.066ZM416.884 281.373L415.548 281.66L417.736 260.442L437.544 272.927L416.884 281.373ZM366.133 442.148L373.349 336.556L443.451 320.841L429.203 426.596L366.133 442.148ZM359.069 545.529L365.827 446.627L428.589 431.151L415.202 530.506L359.069 545.529ZM352.422 642.822L358.762 550.021L414.586 535.081L401.99 628.572L352.422 642.822ZM391.51 720.254L403.338 632.463L445.298 609.647L428.608 698.829L391.51 720.254ZM379.694 807.957L390.852 725.134L427.663 703.876L411.85 788.373L379.694 807.957ZM368.49 891.114L379.031 812.875L410.897 793.468L395.9 873.601L368.49 891.114ZM334.33 907.612L365.84 896.896L355.818 971.267L329.336 980.687L334.33 907.612ZM299.228 983.776L298.819 910.922L332.506 907.946L327.503 981.16L299.228 983.776ZM296.587 829.281L297.019 906.477L263.263 901.357L257.154 823.6L296.587 829.281ZM296.103 742.969L296.563 824.89L256.805 819.158L250.329 736.73L296.103 742.969ZM295.592 651.508L296.079 738.577L249.98 732.294L243.103 644.789L295.592 651.508ZM295.049 554.413L295.568 647.113L242.754 640.354L235.445 547.322L295.049 554.413ZM294.472 451.161L295.024 550.018L235.097 542.89L227.31 443.806L294.472 451.161ZM293.855 341.137L294.446 446.769L226.963 439.38L218.656 333.662L293.855 341.137ZM296.223 446.813L295.632 341.172L371.533 336.78L364.311 442.469L296.223 446.813ZM296.8 550.068L296.248 451.199L364.011 446.873L357.244 545.879L296.8 550.068ZM297.344 647.163L296.826 554.454L356.944 550.289L350.596 643.2L297.344 647.163ZM346.155 734.539L352.114 647.324L401.372 633.166L389.501 721.275L346.155 734.539ZM340.236 821.157L345.846 739.05L388.88 725.881L377.676 809.045L340.236 821.157ZM298.795 906.54L298.363 829.332L338.104 825.996L332.808 903.535L298.795 906.54ZM297.855 738.631L297.368 651.552L350.294 647.611L344.326 734.942L297.855 738.631ZM298.339 824.947L297.879 743.013L344.026 739.349L338.405 821.586L298.339 824.947ZM334.639 903.085L339.926 825.678L377.054 813.666L366.464 892.262L334.639 903.085ZM416.818 285.786L441.571 316.859L372.953 332.24L360.578 297.908L416.818 285.786ZM342.431 299.21H342.435L342.436 299.207L358.349 298.321L370.649 332.445L295.71 336.78L297.048 301.742L342.431 299.21ZM295.265 301.694L293.927 336.758L219.758 329.384L234.573 295.878L295.265 301.694ZM177.573 281.13L232.19 295.323L217.268 329.072L150.714 311.077L177.573 281.13ZM269.384 979.255L263.611 905.799L297.043 910.872L297.452 983.71L269.384 979.255ZM357.851 970.066L367.822 896.067L394.938 878.743L380.698 954.826L357.851 970.066ZM466.791 265.411L501.83 291.723L444.861 316.07L419.807 284.62L466.791 265.411ZM129.761 258.995L174.493 279.755L147.281 310.096L93.192 283.806L129.761 258.995ZM252.424 1043.21L242.321 972.291L267.887 983.234L273.333 1052.54L252.424 1043.21ZM368.642 1029.7L381.995 958.344L399.346 939.384L382.838 1013.63L368.642 1029.7ZM246.957 1102.65L233.674 1033.24L251.067 1046.9L260.586 1113.73L246.957 1102.65ZM369.112 1084.47L384.161 1016.78L392.432 1001.43L375.329 1072.64L369.112 1084.47ZM541.547 174.243L531.024 202.424L540.803 151.894L541.547 174.243ZM251.126 1161.64L235.903 1093.36L245.642 1106.04L258.061 1170.92L251.126 1161.64ZM262.584 1223.73L247.226 1159.09L249.77 1164.65L263.301 1225.32L262.584 1223.73ZM590.649 143.978L590.617 143.798L590.582 143.527L590.532 143.319L590.455 143.051L590.378 142.84L590.352 142.761L573.367 107.495L573.258 107.35L573.157 107.171L544.823 75.9595L544.761 75.9249L544.705 75.8524L507.347 49.528L507.323 49.5216L507.291 49.5027L507.271 49.4807L463.058 28.5409L463.035 28.5439L463.001 28.522L413.879 13.2253L413.856 13.2285L413.833 13.2126L361.539 3.69165L361.525 3.69495L361.508 3.69165L361.499 3.68542L307.61 0L307.587 0.00952148L307.572 0L253.569 2.15625L253.547 2.16895L253.528 2.15955L200.887 10.1516L200.866 10.1672L200.843 10.1609L151.101 23.9474L151.074 23.9696H151.046L105.894 43.4497L105.879 43.4622L105.842 43.4844L105.822 43.4874L67.142 68.4374L67.1345 68.4468L67.0756 68.5099L67.0343 68.5288L36.9263 98.5231L36.836 98.668L36.8324 98.6743L36.7387 98.7783L13.8042 129.479L13.7593 129.599L13.7498 129.614L13.6975 129.703L13.6336 129.933L13.5428 130.261L13.5054 130.418L13.4999 130.437L1.37872 167.783L1.37667 167.815L1.36326 167.944L1.3358 168.354L1.31741 168.672L1.31588 168.704L1.3238 168.786L1.35879 169.148L1.39315 169.489L1.42163 169.609L1.43363 169.697L0.243652 209.114L0.245694 209.118L0.246716 209.127L18.5826 323.356L45.5686 427.245L77.7621 526.361L119.18 628.862L119.181 628.865L141.672 723.517L163.357 814.786L184.283 902.851L204.488 987.881L224.006 1070.03L242.872 1149.43L261.121 1226.24L261.178 1226.37L261.292 1226.75L266.025 1237.29L266.117 1237.43L266.151 1237.5L266.181 1237.56L266.189 1237.58L272.72 1246.55L272.781 1246.59L272.858 1246.7L280.865 1253.63L280.934 1253.66L280.984 1253.71L290.054 1258.19L290.14 1258.21L290.162 1258.22L299.805 1259.99L299.87 1260H299.883H299.884L299.91 1260L309.61 1258.96L309.624 1258.95L309.717 1258.93L318.944 1255.15L318.988 1255.11L319.061 1255.08L327.322 1248.76L327.393 1248.67L327.457 1248.63L334.321 1240.15L334.347 1240.1L334.4 1240L334.481 1239.89L339.6 1229.72L339.708 1229.4L339.776 1229.25L342.911 1217.93L342.923 1217.86L342.939 1217.82L362.417 1137.55L382.472 1054.9L403.131 969.753L424.42 882.006L446.373 791.535L459.35 734.942L487.728 636.976L523.679 528.883L556.586 418.706L576.837 318.042L593.987 182.843L590.649 143.978Z" fill="white"/>
</svg>
