<svg width="90" height="90" viewBox="0 0 90 90" fill="none" xmlns="http://www.w3.org/2000/svg">
<path d="M17.8669 8.81462C20.8699 5.66541 22.9888 4.37317 27.1011 3.18426C30.5112 2.19822 35.6697 2.69658 39.3126 4.36513C44.7728 6.86609 44.2316 2.19234 44.1706 46.3263C44.1225 81.0426 44.0364 84.8202 43.3654 81.7508C41.3074 72.3358 35.0564 65.5679 27.9038 65.0117C26.0689 64.8688 25.7634 64.9972 25.7634 65.9094C25.7634 66.767 26.2438 67.0421 28.2397 67.3274C32.993 68.0078 36.4091 70.6886 39.1354 75.879C40.6289 78.7231 41.218 80.5752 41.417 83.058L41.6858 86.4037L37.9143 87.0776C33.5854 87.8516 29.1474 87.2414 25.0325 85.3063C21.2119 83.5098 16.2605 78.5031 14.4712 74.6269C13.088 71.6308 12.921 70.6919 12.921 65.9158C12.921 61.8609 13.1442 60.1543 13.8419 58.8798C16.4591 54.0963 21.9905 51.0102 29.8302 49.9599C33.5876 49.4562 34.86 49.0874 34.86 48.5007C34.86 47.8728 34.0322 47.7282 30.736 47.7785L26.6125 47.8417L25.9998 44.8343C25.004 39.9449 21.6303 35.671 18.7659 35.671C16.7545 35.671 17.0867 37.4589 19.2432 38.2388C21.3895 39.015 23.0594 41.7585 23.7647 45.6662L24.2645 48.4354L20.4075 50.3421C16.8497 52.1012 12.6513 55.7509 12.0258 57.6287C11.8337 58.2047 11.3671 58.1073 9.86085 57.1764C7.08637 55.4608 4.17919 52.0396 2.55892 48.5826C1.34585 45.9938 1.14893 44.8649 1.14893 40.4887C1.14893 36.0077 1.32609 35.042 2.64082 32.3639C4.77639 28.0134 9.37435 23.9355 14.6172 21.7412C22.4104 18.4796 26.8903 19.4827 28.3142 24.808C28.9531 27.1981 30.1346 28.1911 30.6724 26.7892C31.2166 25.3695 29.7547 21.624 27.9519 19.8205C25.2192 17.0867 21.5607 16.9679 13.8574 19.3623C12.3019 19.8457 12.2934 19.0095 13.8114 14.9498C14.5831 12.8867 15.9358 10.8402 17.8669 8.81462Z" fill="#F7A22D"/>
<path d="M46.097 9.84024L51.448 6.9646C55.6801 4.69008 57.1725 4.13924 58.5857 4.33034C61.1505 4.67615 61.7743 5.38489 64.2924 10.8129C66.9 16.4336 67.1425 16.5937 74.294 17.4213C82.0305 18.3169 82.9171 19.5593 81.246 27.166C80.4562 30.7627 80.3058 32.4591 80.6873 33.4634C80.9747 34.2192 83.0022 36.5307 85.1928 38.6002C88.7898 41.9978 89.1755 42.5593 89.1739 44.3965C89.1723 46.2433 88.7689 46.8166 84.7841 50.6355C79.8028 55.4088 79.7707 55.5218 81.4188 62.3063C83.0267 68.9248 81.5788 70.664 73.7311 71.5376C70.9775 71.8444 68.2473 72.3508 67.6641 72.6629C67.0808 72.9755 65.7436 75.0776 64.6922 77.3355C63.6407 79.5929 62.1725 82.1019 61.4287 82.9118C59.5002 85.0118 56.5384 84.9364 53.0244 82.6977C51.5689 81.7706 49.4414 80.5897 48.2974 80.0742C46.4064 79.222 46.2116 78.942 46.1571 77.0042L46.097 74.8721L49.0488 74.5637C53.3852 74.1109 58.5038 72.3797 62.3062 70.08C79.4545 59.7068 82.412 37.6361 68.5369 23.5741C63.0554 18.0192 56.044 14.8406 47.7023 14.1281C46.2185 14.0012 46.097 13.8342 46.097 11.9156V9.84024Z" fill="#F7A22D"/>
<path d="M45.8445 35.4033L45.8369 25.9016L45.8295 16.3999L47.5685 16.4079C50.4816 16.4213 56.0141 17.948 59.7137 19.76C64.1941 21.9537 70.2075 27.825 72.2446 31.9939C76.4167 40.531 76.2466 49.5001 71.7641 57.3488C69.6997 60.9621 68.0398 62.8882 64.5483 65.7189C59.9914 69.4125 53.1175 72.0719 48.1251 72.0719H45.8295V62.5471V53.0229L48.1037 52.3522C49.3547 51.9829 50.6278 51.5685 50.9328 51.4315C51.2378 51.2939 52.8693 52.4138 54.5586 53.9201C57.4197 56.4714 57.6064 56.7813 57.2912 58.4611C57.0039 59.9926 57.1971 60.5082 58.5739 61.8855C60.3996 63.712 62.0917 63.9336 64.0373 62.6012C65.7988 61.3952 66.1456 60.8288 66.1553 59.1383C66.1606 58.1892 65.5971 57.2369 64.4665 56.2857C63.0682 55.1085 62.4426 54.9185 60.9095 55.2065C59.1795 55.5309 58.8318 55.3398 55.9482 52.4855C53.0554 49.6216 52.8986 49.3411 53.6189 48.3122C54.0438 47.7057 54.3911 46.7813 54.3911 46.2577C54.3911 45.42 54.9396 45.3065 58.9925 45.3065C63.415 45.3065 63.6515 45.3691 65.093 46.9124C66.6855 48.6174 68.1724 48.9107 70.0779 47.8958C74.2656 45.6641 73.0065 40.2452 68.3004 40.2452C66.4826 40.2452 65.8154 40.53 64.879 41.7055C63.7836 43.0791 63.4593 43.1653 59.3765 43.1653H55.0379L53.9736 41.0133L52.9093 38.8609L56.1205 35.9536C58.8072 33.5212 59.5736 33.0945 60.8096 33.3419C64.9583 34.1721 67.7952 29.3618 64.8109 26.5568C61.7609 23.6908 56.6187 26.0397 57.3523 29.964C57.6364 31.4849 57.3715 31.942 54.7388 34.4773L51.8087 37.2983L48.8266 36.3508L45.8445 35.4033Z" fill="#F7A22D"/>
</svg>
