<svg width="86" height="90" viewBox="0 0 86 90" fill="none" xmlns="http://www.w3.org/2000/svg">
<path fill-rule="evenodd" clip-rule="evenodd" d="M44.6904 1.56306C43.1373 2.8574 34.3374 15.0853 34.3261 15.9654C34.3059 17.5516 35.6553 18.4592 39.4827 19.4336C41.6391 19.983 43.5681 20.5914 43.769 20.7855C43.9699 20.9801 43.0302 22.2267 41.6813 23.556C39.7362 25.4724 39.2283 26.3038 39.2283 27.5712C39.2283 28.6483 39.5382 29.3353 40.1783 29.6783C42.2836 30.8055 42.5572 30.6139 49.4291 23.1968C51.1129 21.3796 52.4907 19.5973 52.4907 19.2366C52.4907 17.7044 51.0156 16.7649 46.8704 15.6577C44.49 15.0219 42.4334 14.3924 42.3003 14.2592C42.1671 14.1261 43.6319 11.8549 45.5554 9.21164C47.4785 6.56842 49.0523 4.01514 49.0523 3.5375C49.0523 2.50361 47.3705 0.703125 46.4052 0.703125C46.03 0.703125 45.2583 1.09034 44.6904 1.56306ZM11.2597 32.8537C10.9394 33.2394 9.80476 36.8325 8.73787 40.8388C7.67098 44.8452 5.8221 51.7714 4.62996 56.2308C0.341268 72.269 0.312778 72.4606 2.00644 73.6473C2.92597 74.2915 5.09463 74.4124 15.7601 74.4124H28.4218V79.0807V83.7489H22.6369C18.1955 83.7489 16.5981 83.9268 15.7601 84.5141C14.5572 85.3568 14.2806 87.5872 15.2576 88.5646C15.7021 89.0093 22.6438 89.1543 43.4845 89.1543C70.3061 89.1543 71.1368 89.1263 71.6304 88.2039C72.4395 86.6914 72.2258 85.3396 71.0469 84.5141C70.2089 83.9268 68.6115 83.7489 64.17 83.7489H58.3852V79.0807V74.4124H71.1564C83.2729 74.4124 83.9783 74.3618 84.9101 73.4296C85.4504 72.8891 85.8925 72.1997 85.8925 71.898C85.8925 71.5957 83.6821 62.9978 80.9805 52.791C78.2788 42.5843 76.0685 34.1126 76.0685 33.9652C76.0685 33.8173 75.7212 33.3495 75.2968 32.9244C74.6111 32.2389 71.0204 32.1524 43.183 32.1524C16.6359 32.1524 11.7524 32.2596 11.2597 32.8537ZM52.4907 79.3264V83.7489H43.4035H34.3162V79.3264V74.9038H43.4035H52.4907V79.3264ZM23.9882 62.3732C24.5546 59.6706 25.1357 57.0721 25.2796 56.5993C25.5203 55.8062 24.9539 55.7394 18.0014 55.7394H10.4625L8.82479 61.8371C7.92393 65.1909 7.33594 68.1761 7.51818 68.471C7.73332 68.8194 10.4079 69.0071 15.1554 69.0071C21.6913 69.0071 22.4876 68.9167 22.7096 68.1471C22.8461 67.6744 23.4219 65.0759 23.9882 62.3732ZM28.9131 38.3033C28.9131 39.0281 27.1384 47.7474 26.6393 49.4741C26.4173 50.2417 25.6314 50.3341 19.3017 50.3341C13.9619 50.3341 12.2103 50.1827 12.2044 49.7198C12.2004 49.3822 12.9038 46.5071 13.7679 43.3317L15.3392 37.5578H22.1262C27.8663 37.5578 28.9131 37.6728 28.9131 38.3033ZM73.1198 43.7705C72.3103 40.5661 71.6477 37.8575 71.6477 37.7509C71.6477 37.6447 68.5531 37.5578 64.7709 37.5578C64.0554 37.5578 63.4084 37.5515 62.8246 37.5459H62.8243H62.8242C60.1552 37.5201 58.8061 37.5071 58.268 38.1612C57.718 38.8298 58.0155 40.1955 58.6169 42.957L58.6171 42.9578C58.7458 43.5486 58.8883 44.2033 59.0395 44.9287L60.1147 50.0883L67.3546 50.2244C71.3368 50.2991 74.5944 50.1886 74.5934 49.9787C74.5929 49.7689 73.9298 46.9748 73.1198 43.7705ZM76.231 56.2308C76.7065 56.7114 79.4783 68.1638 79.2205 68.582C78.9022 69.0965 65.2492 69.1422 64.4559 68.6311C63.8164 68.2188 61.3157 56.4121 61.771 55.9536C62.1193 55.6032 75.8705 55.8667 76.231 56.2308ZM58.1195 68.5481C58.396 68.1004 56.1925 57.0544 55.6522 56.1797C55.5023 55.9374 49.8771 55.7394 43.1511 55.7394H30.9226L30.6024 57.5821C30.4265 58.5959 29.864 61.3575 29.3522 63.7192C28.8404 66.0813 28.4219 68.2376 28.4219 68.5103C28.4219 69.1584 57.7196 69.1953 58.1195 68.5481ZM51.9995 37.833C51.9995 37.9838 52.5521 40.5568 53.2275 43.5498C53.9029 46.5429 54.4555 49.2938 54.4555 49.6628C54.4555 50.2102 52.4165 50.3341 43.4034 50.3341C36.2397 50.3341 32.3514 50.1581 32.3514 49.8343C32.3514 49.5596 32.904 46.7778 33.5794 43.6526C34.2548 40.5273 34.8074 37.8777 34.8074 37.7642C34.8074 37.6507 38.6756 37.5578 43.4034 37.5578C48.1313 37.5578 51.9995 37.6816 51.9995 37.833Z" fill="#F7A22D"/>
</svg>
