<svg width="91" height="80" viewBox="0 0 91 80" fill="none" xmlns="http://www.w3.org/2000/svg">
<path fill-rule="evenodd" clip-rule="evenodd" d="M6.06671 6.87751C7.29359 5.0719 8.90608 2.94885 9.65009 2.1601C11.4642 0.235825 13.275 0.21527 15.9551 2.08839C17.0277 2.83814 18.1997 3.63989 18.5601 3.87052C18.9202 4.10115 20.3927 5.13898 21.8321 6.17681C24.3676 8.00464 29.5174 11.602 31.4363 12.886C39.1815 18.068 39.6527 19.0182 36.6817 23.4689C35.7595 24.8501 35.005 26.1177 35.005 26.2851C35.005 26.4528 35.7008 27.0852 36.5513 27.6907C38.381 28.9927 38.4807 28.9381 40.919 25.3131C43.8493 20.9555 45.4069 20.3311 48.1201 22.4256C48.9417 23.0601 51.2643 24.7109 53.2813 26.0947C60.8354 31.2767 60.9372 31.5321 57.4301 36.4843C56.1621 38.2744 55.1259 39.9714 55.1276 40.2553C55.1293 40.5388 55.8159 41.2382 56.6538 41.8089L58.177 42.8471L59.2685 41.3895C62.9189 36.5162 64.5005 36.1103 68.6179 38.9889C70.0199 39.9689 72.2511 41.5258 73.5761 42.4483L79.4921 46.5674C81.4207 47.91 83.8476 49.6548 84.885 50.4444C85.9224 51.234 87.1736 52.0563 87.6649 52.2718C88.9584 52.8388 90.3341 54.9614 90.3341 56.3905C90.3341 57.24 89.3897 58.9789 87.2944 61.9863C85.6223 64.3861 83.9272 66.858 83.5278 67.479C83.1283 68.0996 82.0733 69.3736 81.1834 70.3095C78.6957 72.9257 77.6679 72.7479 71.8395 68.6938C66.5036 64.9828 64.9552 63.888 62.8875 62.3662C62.1041 61.7897 59.7555 60.1346 57.6685 58.6879C51.8619 54.6628 51.3325 53.3415 53.9204 49.3353C55.8129 46.4068 55.7765 45.9405 53.5541 44.6376L52.2815 43.8917L50.2851 46.7343C46.8601 51.6114 45.9673 52.201 43.7797 51.0298C42.6828 50.4423 42.7604 50.9015 44.0426 52.583C47.6918 57.3691 48.1759 63.1529 45.1332 65.616C43.5374 66.9075 37.8029 65.7447 32.9444 63.1441L30.6039 61.8911L29.4495 63.2682C28.5227 64.3735 28.345 64.9124 28.5483 65.9984C28.7533 67.0903 28.5953 67.5583 27.7309 68.4234C27.1336 69.0209 26.1797 69.4947 25.574 69.4947C24.1765 69.4947 22.4303 67.7478 22.4303 66.3498C22.4303 65.083 24.1329 63.2049 25.2818 63.2049C25.8028 63.2049 26.336 62.6262 26.8348 61.5204L27.5939 59.8356L25.7458 58.2799C22.7312 55.7422 20.8953 53.5722 19.704 51.1384C18.6612 49.0074 18.6226 48.7407 19.1575 47.3356C19.5071 46.4164 20.4317 45.3324 21.5153 44.5705C23.023 43.5105 23.7418 43.3029 26.1801 43.2245C28.0458 43.1645 29.9843 43.4111 31.6744 43.9227L34.2862 44.7139L32.7592 43.3151C30.4957 41.2407 30.5628 40.1936 33.2106 36.2524C34.2606 34.69 35.2825 33.3108 35.4816 33.1876C36.2017 32.7427 35.7784 31.9464 34.3293 31.0218C32.4234 29.8053 32.304 29.8212 31.1945 31.4411C29.1729 34.3931 27.7909 35.5295 26.2253 35.5278C24.8102 35.5265 23.9455 35.1026 20.8957 32.9154C20.1672 32.3929 18.0924 30.94 16.285 29.6875C14.478 28.4345 11.9236 26.6419 10.6087 25.7039C9.29382 24.7654 6.71725 22.9603 4.88217 21.6918C-0.1993 18.1787 -0.629342 16.5387 2.39699 12.2151C3.18794 11.085 4.83942 8.68312 6.06671 6.87751ZM12.1793 68.2603C12.1692 66.5176 12.2984 64.7568 12.466 64.3475C12.6995 63.7789 13.0449 63.6691 13.9331 63.8825L13.9633 63.8898C14.7355 64.0752 15.1093 64.1649 15.2284 64.3896C15.3401 64.6005 15.2275 64.9301 15.0094 65.5691L15.0007 65.5946C14.7802 66.2408 14.6545 67.6543 14.7215 68.7362C15.0422 73.9211 19.4895 77.5068 24.7793 76.8455L27.041 76.5629V78.0607V79.5585L24.4213 79.556C22.9806 79.5548 21.107 79.361 20.2582 79.125C17.6607 78.4033 14.8795 76.1771 13.4804 73.7001C12.3708 71.7352 12.1952 71.001 12.1793 68.2603ZM18.1184 64.7232C17.612 65.2294 17.7877 68.6087 18.3942 70.0323C19.5498 72.7458 22.0174 74.0889 25.2596 73.7693C26.4693 73.6498 26.6218 73.4917 26.6218 72.3558C26.6218 71.1519 26.5422 71.0886 25.2617 71.2765C22.1473 71.7339 20.1467 69.73 20.4074 66.4135C20.5327 64.8193 20.4544 64.662 19.4807 64.5484C18.8955 64.48 18.2823 64.5589 18.1184 64.7232ZM87.2951 54.5278C87.8136 54.9987 88.2382 55.8139 88.2382 56.3397C88.2382 57.149 85.144 61.9033 80.4272 68.3416C79.0033 70.2848 77.5388 70.4097 75.321 68.7777C74.4718 68.1529 73.7165 67.6049 73.6423 67.5596C73.5044 67.4757 74.9073 65.2927 76.6049 62.9495C77.1246 62.2321 77.924 61.0999 78.3809 60.4336C78.8382 59.7669 80.317 57.6539 81.6671 55.738L84.1213 52.2551L85.2367 52.9633C85.8503 53.3529 86.7766 54.0569 87.2951 54.5278ZM82.3542 51.1204C82.3454 50.9631 81.3192 50.1274 80.0739 49.2623C78.8286 48.3977 77.7333 47.6899 77.6399 47.6899C77.5464 47.6899 77.1842 48.0203 76.8355 48.4237C75.9213 49.4799 67.2053 62.063 67.0364 62.57C66.8985 62.9839 71.7821 66.4202 72.0454 66.094C73.0912 64.7996 82.3659 51.3279 82.3542 51.1204ZM73.0529 44.4401C74.1205 45.1899 75.1797 45.93 75.4065 46.0851C75.7636 46.33 74.2144 48.8682 70.8431 53.5604C70.3821 54.202 68.9674 56.2529 67.6994 58.1185C66.4315 59.9836 65.2783 61.5137 65.1375 61.5188C64.9962 61.5234 64.1986 61.0089 63.3653 60.3744C62.532 59.74 61.4724 58.9382 61.0109 58.5923C60.9544 58.55 60.8997 58.513 60.8486 58.4785L60.8486 58.4784C60.7265 58.396 60.6248 58.3272 60.5669 58.2319C60.2779 57.7566 61.077 56.6198 65.8615 49.8129L65.8616 49.8129L65.863 49.8108C66.2651 49.2388 66.6953 48.6267 67.1554 47.9717C68.2616 46.3971 69.4494 44.6519 69.7952 44.0938C70.141 43.5356 70.5786 43.0786 70.7677 43.0782C70.9567 43.0777 71.9849 43.6904 73.0529 44.4401ZM68.957 41.6088C68.957 41.4839 68.0713 40.8197 66.9886 40.1329C65.9063 39.446 64.9159 38.8975 64.788 38.9134C63.6743 39.0548 62.6126 40.2016 59.5674 44.5508C57.6322 47.315 55.6521 50.0784 55.1675 50.6914C53.708 52.5377 54.0047 53.6984 56.3701 55.3987L58.4537 56.8962L61.3417 52.817C66.2711 45.8545 66.8612 45.0104 67.9242 43.4002C68.4922 42.5398 68.957 41.7338 68.957 41.6088ZM14.9532 3.70449C16.0686 4.4207 16.9803 5.1281 16.9795 5.27696C16.9778 5.56294 15.9492 7.18321 14.3681 9.38928C13.2494 10.9504 9.2774 16.6629 7.86274 18.7457C7.31867 19.547 6.79849 20.277 6.70753 20.3684C6.61615 20.4594 5.57163 19.8221 4.38667 18.9515C2.45057 17.53 2.25647 17.2445 2.47695 16.1416C2.61192 15.4669 3.11785 14.4111 3.60114 13.7955C4.08485 13.18 5.99708 10.5063 7.85102 7.85412C11.1469 3.13882 11.7643 2.4222 12.5431 2.40921C12.7535 2.40585 13.8383 2.98871 14.9532 3.70449ZM23.6878 9.92643C23.6878 9.77422 22.6533 8.96283 21.3887 8.12335C20.1245 7.28344 19.0221 6.59615 18.9387 6.59615C18.7321 6.59615 17.7026 7.84448 16.8638 9.1121C16.4824 9.68867 15.6307 10.9152 14.9709 11.8377C12.9837 14.6174 8.79209 20.6112 8.48443 21.1132C8.2279 21.5321 13.0801 25.3789 13.3694 24.986C16.749 20.3957 23.6878 10.2682 23.6878 9.92643ZM27.9833 12.7564C29.1939 13.608 30.2459 14.3452 30.3205 14.3951C30.5611 14.5553 29.193 16.7844 26.6131 20.4338C25.2269 22.3941 23.2225 25.2719 22.1582 26.8285C21.0936 28.385 20.1388 29.6589 20.0352 29.6589C19.7301 29.6589 15.321 26.6704 15.1013 26.3144C14.9902 26.1345 15.515 25.1625 16.2674 24.154C17.0198 23.1456 17.9616 21.849 18.3607 21.2724C18.7597 20.6959 19.6026 19.4895 20.2343 18.5917C20.8656 17.6939 21.574 16.6561 21.8078 16.2854C22.6793 14.9046 25.4491 11.2087 25.6121 11.2087C25.7056 11.2087 26.7724 11.9051 27.9833 12.7564ZM32.6628 26.0697C35.6334 21.7663 36.6419 20.3054 36.3129 19.269C36.1439 18.7364 35.6214 18.3159 34.8305 17.6792C34.6868 17.5636 34.5343 17.4408 34.3735 17.309C33.3754 16.4909 32.4784 15.8212 32.3808 15.8212C32.2827 15.8212 30.6169 18.0952 28.6787 20.8749C26.7405 23.6542 24.366 27.0298 23.4024 28.3766L21.6494 30.8247L22.564 31.6319C24.4628 33.3087 25.7052 33.8614 26.7074 33.4756C27.71 33.0898 28.4105 32.2441 31.778 27.3526C32.0904 26.8989 32.3852 26.4719 32.6628 26.0697ZM27.4602 48.6477C28.7281 49.1089 30.266 49.8364 30.878 50.265C31.49 50.694 32.1133 51.0445 32.2633 51.0445C33.0434 51.0445 38.1022 54.9187 40.7123 57.5151C44.009 60.7942 44.958 62.8908 43.5957 63.8872C43.1728 64.1966 42.3147 64.3241 41.5552 64.1895C38.3813 63.6289 32.4846 60.9812 32.4968 60.1225C32.5005 59.8574 33.0664 59.002 33.7543 58.2208C35.2419 56.5326 35.2465 56.4966 34.1361 55.0847C33.5095 54.2876 32.8799 53.9798 31.8765 53.9798C30.6496 53.9798 30.4077 54.1739 29.8289 55.6214C29.4675 56.5242 28.9977 57.3709 28.7847 57.5025C27.8378 58.0879 22.074 52.3679 21.1435 49.9186C20.7633 48.919 20.8287 48.6435 21.5911 48.0254C22.6101 47.2002 23.8357 47.3301 27.4602 48.6477Z" fill="#F7A22D"/>
</svg>
